<?xml version="1.0" standalone="no"?>
<!DOCTYPE svg PUBLIC "-//W3C//DTD SVG 20010904//EN"
 "http://www.w3.org/TR/2001/REC-SVG-20010904/DTD/svg10.dtd">
<svg version="1.0" xmlns="http://www.w3.org/2000/svg"
 width="621.000000pt" height="621.000000pt" viewBox="0 0 621.000000 621.000000"
 preserveAspectRatio="xMidYMid meet">
<metadata>
Created by potrace 1.16, written by Peter Selinger 2001-2019
</metadata>
<g transform="translate(0.000000,621.000000) scale(0.100000,-0.100000)"
fill="#000000" stroke="none">
<path d="M2455 5575 c-698 -52 -1308 -101 -1355 -109 -176 -32 -327 -142 -404
-294 -70 -138 -66 -38 -66 -1678 0 -1435 1 -1483 19 -1557 24 -93 74 -201 132
-287 96 -142 696 -905 748 -951 64 -57 168 -112 256 -134 40 -10 108 -15 212
-15 131 0 2887 159 3043 175 263 28 432 156 524 395 l21 55 3 1665 c2 1238 0
1679 -8 1720 -18 84 -65 163 -139 233 -74 69 -981 708 -1100 775 -42 23 -112
54 -156 69 -74 24 -95 27 -270 29 -160 2 -387 -12 -1460 -91z m1605 -221 c35
-8 88 -28 117 -43 67 -37 991 -683 1049 -734 27 -23 48 -53 54 -75 8 -26 10
-528 8 -1652 l-3 -1615 -30 -60 c-35 -70 -83 -108 -165 -130 -55 -15 -2932
-195 -3114 -195 -97 0 -167 19 -223 59 -33 24 -478 585 -690 871 -58 77 -109
184 -123 255 -8 44 -10 451 -8 1495 l3 1435 24 53 c29 65 88 117 155 138 37
11 428 44 1371 114 726 54 1363 98 1415 99 54 0 123 -6 160 -15z"/>
<path d="M2625 5028 c-1306 -95 -1296 -94 -1303 -144 -3 -18 38 -54 210 -189
117 -93 233 -178 258 -189 40 -19 62 -21 210 -20 178 2 2659 150 2669 159 3 3
1 14 -5 23 -17 27 -493 369 -559 401 -59 29 -160 52 -220 50 -16 -1 -583 -42
-1260 -91z"/>
<path d="M3354 4254 c-1075 -63 -1420 -86 -1447 -98 -21 -8 -43 -28 -54 -48
-17 -31 -18 -101 -21 -1396 -2 -965 1 -1376 9 -1404 6 -23 23 -54 38 -69 58
-57 -11 -59 1538 30 782 45 1439 87 1459 93 48 13 89 54 103 104 15 53 15
2733 1 2786 -6 20 -24 48 -41 62 -27 23 -39 26 -102 25 -40 -1 -707 -39 -1483
-85z m520 -240 c166 -43 310 -172 361 -323 14 -45 19 -48 68 -64 72 -23 167
-82 227 -141 173 -170 219 -441 110 -656 l-30 -60 21 -42 c63 -124 84 -270 55
-392 -45 -192 -192 -356 -375 -418 -34 -11 -61 -26 -61 -32 0 -6 -16 -45 -35
-85 -92 -191 -297 -307 -505 -286 -71 8 -175 43 -220 75 -35 25 -45 25 -78 1
-65 -46 -180 -80 -269 -81 -207 -1 -395 125 -473 317 -24 61 -29 67 -66 78
-134 39 -282 165 -342 289 -81 167 -82 348 -3 510 l29 58 -29 63 c-33 69 -59
177 -59 246 -1 234 166 466 386 539 38 13 68 29 71 39 49 149 179 289 313 336
130 46 277 38 396 -20 40 -19 75 -35 78 -35 4 0 23 11 44 25 101 66 261 91
386 59z"/>
<path d="M3685 3736 c-16 -8 -42 -27 -58 -43 l-27 -29 2 -909 3 -909 40 -23
c96 -54 203 -36 277 46 25 27 50 68 57 92 34 115 95 178 203 210 86 26 140 63
183 123 69 97 71 200 5 332 -35 68 -41 91 -41 144 -1 54 5 74 42 149 40 78 44
93 44 162 0 64 -4 84 -30 134 -38 75 -105 128 -196 155 -115 35 -178 96 -214
208 -22 68 -66 119 -130 148 -56 27 -115 30 -160 10z m221 -365 c36 -22 64
-75 64 -121 0 -42 56 -100 97 -100 47 -1 110 -35 129 -72 38 -74 15 -153 -57
-191 -69 -37 -218 -3 -305 69 -113 92 -176 273 -129 365 34 65 135 90 201 50z
m234 -736 c102 -53 95 -207 -10 -249 -22 -9 -52 -16 -66 -16 -38 0 -94 -59
-94 -100 0 -18 -8 -48 -17 -67 -46 -98 -207 -97 -249 2 -58 141 80 378 250
428 67 20 150 21 186 2z"/>
<path d="M3042 3709 c-57 -29 -92 -73 -125 -163 -37 -99 -97 -156 -196 -186
-86 -25 -143 -63 -186 -124 -68 -96 -68 -201 -1 -334 31 -59 36 -79 36 -138 0
-61 -5 -79 -42 -153 -74 -148 -62 -257 40 -361 49 -50 67 -61 129 -80 40 -12
91 -34 114 -49 41 -28 99 -104 99 -131 1 -24 39 -103 63 -128 50 -54 151 -82
223 -63 21 6 58 23 82 38 l42 27 0 903 0 903 -52 30 c-68 38 -159 42 -226 9z
m119 -336 c16 -10 38 -36 49 -59 18 -36 19 -49 11 -107 -19 -132 -97 -241
-215 -298 -69 -33 -172 -47 -215 -29 -105 43 -121 184 -28 245 14 9 48 19 76
24 76 12 98 39 115 143 5 24 18 47 42 67 29 26 43 31 85 31 30 0 63 -7 80 -17z
m-207 -738 c66 -20 104 -45 162 -107 61 -65 93 -128 104 -208 17 -121 -32
-190 -136 -190 -81 0 -122 43 -139 142 -9 58 -42 89 -104 99 -63 10 -95 29
-121 72 -37 59 -21 129 40 181 26 21 42 26 88 26 31 0 79 -7 106 -15z"/>
</g>
</svg>
